<svg xmlns="http://www.w3.org/2000/svg" viewBox="0 0 512 512">
  <rect width="512" height="512" fill="#f0fdf4" rx="100" ry="100"/>
  <path d="M256 64C150 64 64 136 64 224c0 50 28 94 72 122v78l78-44c14 4 28 6 42 6 106 0 192-72 192-160S362 64 256 64z" fill="#16a34a"/>
  <path d="M256 160c-20 0-38 12-45 30-5 12-2 26 8 36 10 10 24 13 36 8 18-7 30-25 30-45 0-16-13-29-29-29zm0 0" fill="#ffffff"/>
  <path d="M320 224c0 26-21 48-48 48s-48-21-48-48 21-48 48-48 48 21 48 48z" fill="#ffffff" opacity="0.3"/>
</svg>